<?xml version="1.0" standalone="no"?>
<!DOCTYPE svg PUBLIC "-//W3C//DTD SVG 1.1//EN" "http://www.w3.org/Graphics/SVG/1.1/DTD/svg11.dtd" >
<svg xmlns="http://www.w3.org/2000/svg">
<metadata>
This is a custom SVG webfont generated by Font Squirrel.
Copyright   : Designed by Bo Linnemann  Kontrapunkt AS The font may be used and distributed freely  NOT FOR RESALE wwwkontrapunktcom
</metadata>
<defs>
<font id="webfonteG78Fz3P" horiz-adv-x="1333" >
<font-face units-per-em="2048" ascent="1638" descent="-410" />
<missing-glyph horiz-adv-x="456" />
<glyph unicode=" "  horiz-adv-x="456" />
<glyph unicode="&#x09;" horiz-adv-x="456" />
<glyph unicode="&#xa0;" horiz-adv-x="456" />
<glyph unicode="!" horiz-adv-x="524" d="M178 0v186h172v-186h-172zM184 1362h156l-21 -981h-116z" />
<glyph unicode="&#x22;" horiz-adv-x="636" d="M92 1362h137l-18 -545h-100zM408 1362h135l-19 -545h-98z" />
<glyph unicode="#" horiz-adv-x="1447" d="M193 428l18 109h231l45 292h-231l16 109h232l67 424h117l-65 -424h288l68 424h119l-68 -424h230l-19 -109h-229l-47 -292h231l-16 -109h-232l-67 -428h-119l69 428h-290l-68 -428h-115l68 428h-233zM557 537h291l47 292h-291z" />
<glyph unicode="$" d="M158 985q0 209 90 293q98 98 377 100v228h129v-230q176 -10 348 -43l-17 -112q-213 39 -419 39q-121 0 -195 -15.5t-110.5 -53.5t-48 -84t-11.5 -124q0 -139 86 -178q49 -20 238 -33q14 -2 26 -2q242 -16 287 -25q162 -33 211 -159q27 -70 27 -180q0 -227 -88.5 -318.5 t-333.5 -99.5v-232h-129v230q-100 2 -210 14t-169 25l-58 10l17 119q256 -47 471 -48q203 0 278.5 54.5t75.5 206.5q0 72 -11 114.5t-28.5 70.5t-67 41t-97.5 19t-148 11q-256 12 -334 36q-141 45 -174 197q-12 55 -12 129z" />
<glyph unicode="%" horiz-adv-x="1804" d="M119 1026q0 213 58.5 279.5t246.5 66.5q102 0 161.5 -15.5t91.5 -59.5t41 -102t9 -169q0 -211 -55.5 -278.5t-248 -67.5t-248.5 68.5t-56 277.5zM231 1026q0 -158 33 -202t160 -44t158.5 44t31.5 202q0 160 -30.5 204t-159.5 44q-123 0 -158 -44t-35 -204zM375 0 l934 1362h131l-940 -1362h-125zM1077 338q0 213 58.5 279.5t246.5 66.5q102 0 162 -15.5t91.5 -59.5t41 -102t9.5 -169q0 -211 -55.5 -278.5t-248 -67.5t-249 68.5t-56.5 277.5zM1190 338q0 -158 32.5 -202t159.5 -44t159 44t32 202q0 160 -31 204t-160 44 q-123 0 -157.5 -44t-34.5 -204z" />
<glyph unicode="&#x26;" horiz-adv-x="1355" d="M147 375q0 53 6.5 99t14.5 67l6 18l213 119q16 10 16 24.5t-16 24.5l-194 109q-18 76 -19 178q0 205 101.5 284.5t312.5 79.5q90 0 182 -11t139 -21l45 -11l-18 -108q-168 35 -315 35q-164 0 -234 -48.5t-70 -200t73 -208.5t231 -57h335v204h138v-204h180v-115h-180v-613 q-244 -35 -424 -34q-131 0 -215 12t-160 51t-112 119t-36 207zM293 369q0 -76 19.5 -127.5t47 -79t83 -40.5t99.5 -16.5t124 -3.5q61 0 133.5 4.5t113.5 8.5l43 6v512h-350q-170 0 -241.5 -52t-71.5 -212z" />
<glyph unicode="'" horiz-adv-x="323" d="M92 1362h137l-18 -545h-100z" />
<glyph unicode="(" horiz-adv-x="589" d="M174 0v799q0 184 2 223q10 195 73.5 271.5t209.5 76.5q14 0 26 -2v-113q-88 0 -127 -32q-47 -39 -51 -166q-4 -119 -4 -334v-492q0 -219 4 -333.5t41 -156.5t137 -44v-111h-26q-106 0 -166 39t-90 127q-29 90 -29 248z" />
<glyph unicode=")" horiz-adv-x="589" d="M104 -303q90 2 129 33q45 35 50 168q6 180 6 333v492q0 221 -6 334q-4 115 -40 155.5t-139 42.5v113q12 2 27 2q109 0 167 -39t89 -129q29 -90 29 -246v-798h-2v-226q-10 -195 -72.5 -270.5t-210.5 -75.5h-27v111z" />
<glyph unicode="*" horiz-adv-x="854" d="M96 1071l33 100l252 -100v291h92v-291l252 100l33 -100l-256 -102l153 -240l-73 -59l-154 248l-166 -248l-72 59l158 240z" />
<glyph unicode="+" d="M238 616v129h364v406h127v-406h367v-129h-365v-407h-127v407h-366z" />
<glyph unicode="," horiz-adv-x="417" d="M86 -276l107 276h-95v186h219v-186l-108 -276h-123z" />
<glyph unicode="-" horiz-adv-x="577" d="M96 430v133h385v-133h-385z" />
<glyph unicode="." horiz-adv-x="407" d="M100 0v186h207v-186h-207z" />
<glyph unicode="/" horiz-adv-x="841" d="M-68 -408l719 1772h123l-719 -1772h-123z" />
<glyph unicode="0" d="M121 680q0 156 7 258t31.5 185t59.5 128t99.5 76t145.5 41t202 10q125 0 211 -12t148 -47t98 -81t56.5 -132t26.5 -180.5t6 -245.5q0 -154 -5 -248t-25.5 -181t-55 -131t-97 -78t-147.5 -45t-212 -11t-213 11t-149.5 45t-98.5 78t-55.5 131t-26.5 181t-6 248zM264 680 q0 -139 3 -219t18.5 -154t39 -106.5t72.5 -59t109.5 -33t161.5 -6.5q76 0 128 4.5t96 19.5t71.5 30.5t49 53.5t32 72.5t16.5 103.5t7 129t1 165h2q0 137 -4 217t-19.5 153.5t-40 108.5t-72.5 62.5t-109.5 35t-159.5 7.5q-92 0 -150.5 -7.5t-108 -32t-74 -61.5t-42 -107.5 t-22.5 -155.5t-5 -220z" />
<glyph unicode="1" d="M291 1251v113h473v-1249h278v-115h-712v115h295v1136h-334z" />
<glyph unicode="2" d="M172 0v229q0 86 15.5 148.5t36 101.5t68.5 72t83 49t112 47l304 121q123 49 166.5 97t43.5 149q0 143 -68.5 195.5t-268.5 52.5q-109 0 -223.5 -12.5t-174.5 -24.5l-61 -15l-21 115q211 53 488 53q256 0 363.5 -74.5t107.5 -273.5q0 -49 -4 -88t-18.5 -71.5t-24 -56 t-38.5 -47.5l-46 -37q-16 -13 -62 -33l-67 -28l-84 -33l-92 -36q-244 -96 -285 -121q-90 -53 -109 -149q-6 -37 -6 -92v-117h856v-121h-991z" />
<glyph unicode="3" d="M178 1245v119h905v-209l-407 -336q-16 -10 -17 -28q4 -33 41 -29q4 0 35 2t49 2q373 8 373 -369q0 -127 -42 -213t-122 -127t-168 -56t-211 -15q-102 0 -206.5 10t-157.5 20l-53 13l16 112q203 -37 410 -37q197 0 295 57.5t98 221.5q0 141 -55.5 207.5t-192.5 66.5 l-209 -8l-63 150l452 377q23 20 21 43q-4 27 -47 26h-744z" />
<glyph unicode="4" d="M84 315v269l627 780h182l-657 -791q-37 -45 -37 -77q0 -63 77 -64h605v502h137v-502h233v-117h-233v-315h-137v315h-797z" />
<glyph unicode="5" d="M178 739v625h897v-119h-772v-420q0 -41 33 -41q16 0 35 15l112 78q86 16 172 16q133 0 218 -17.5t153 -65.5t98.5 -138t30.5 -232q0 -262 -118.5 -358t-385.5 -96q-113 0 -227.5 11t-171.5 23l-57 11l16 112q215 -41 422 -41q219 0 300 71t81 265q0 109 -22.5 176.5 t-75 102.5t-115 46t-164.5 11q-90 0 -183.5 -18.5t-142.5 -36.5l-47 -19z" />
<glyph unicode="6" d="M143 680q0 309 33 434q20 78 53 127q55 78 161 106.5t300 28.5q104 0 211 -12t160 -25l55 -12l-18 -110q-201 45 -406 45q-141 0 -221 -21.5t-119 -77.5q-10 -14 -19 -32.5t-15.5 -43t-10.5 -43t-7 -50t-4 -47t-2 -51.5t-1 -46v-47v-39q0 -39 31 -39q14 0 38 16l115 78 q125 25 213 25q154 0 242 -15.5t149.5 -62.5t84 -130t22.5 -222q0 -137 -27.5 -222.5t-94.5 -130.5t-152 -60t-224 -15q-195 0 -300 28.5t-161 106.5q-43 61 -63.5 181t-21.5 181.5t-1 196.5zM291 483q2 -78 6 -126t18.5 -95t39 -73.5t66.5 -48t102.5 -30t146.5 -8.5 q92 0 142 3.5t102.5 19.5t76 50t38.5 92.5t15 148.5q0 76 -8 127t-29.5 86t-46 54t-72.5 29.5t-91 12.5t-121 2q-90 0 -186.5 -15.5t-147.5 -29.5l-51 -14q-2 -62 0 -185z" />
<glyph unicode="7" d="M121 1243v121h1018l4 -111q6 -145 -15.5 -230t-67.5 -143.5t-159 -156.5q-158 -139 -217 -237.5t-59 -274.5v-211h-144v211q0 205 62.5 322.5t234.5 267.5q139 121 179 189.5t38 178.5l-2 74h-872z" />
<glyph unicode="8" d="M145 369q0 111 60 206l178 101q18 12 18 29q0 20 -30 32q-113 47 -160 121t-47 197q0 98 33.5 163.5t103.5 99.5t156 47t211 13h-2q254 0 378.5 -66.5t124.5 -256.5q0 -111 -59 -207l-178 -100q-18 -12 -19 -29q0 -20 31 -33q244 -100 244 -348q0 -195 -116 -273.5 t-406 -78.5q-268 0 -394.5 78t-126.5 305zM289 369q0 -164 80 -215.5t301 -51.5q252 0 325 74q51 53 52 186q0 74 -41 129.5t-119 93.5t-159 61.5t-193 45.5q-70 -23 -125 -69q-121 -107 -121 -254zM305 1055q0 -125 107.5 -198t373.5 -124q66 20 121 68q121 106 121 254 q0 117 -81 162t-279.5 45t-280.5 -46t-82 -161z" />
<glyph unicode="9" d="M143 948q0 137 29 222t95.5 130.5t151.5 60.5t224 15q195 0 300.5 -28.5t160.5 -106.5q14 -20 25.5 -45t19.5 -48.5t14 -56.5l11 -58q4 -24 7 -63.5t4 -60t2 -63.5t1 -58v-58v-50v-49v-58q0 -14 -1 -57t-2 -63.5t-4 -60.5t-7 -63l-11 -58q-6 -34 -14 -57.5t-19.5 -48 t-25.5 -44.5q-55 -78 -160.5 -106.5t-300.5 -28.5q-104 0 -210.5 12t-162.5 25l-53 12l19 110q201 -45 405 -45q139 0 220 21.5t120 77.5q10 14 19.5 32.5t15.5 43t10 43t7 50t4 47t2 51.5t1 46v47v39q0 39 -30 39q-14 0 -39 -16l-115 -78q-127 -25 -213 -25 q-154 0 -242 15.5t-150.5 62.5t-85 130t-22.5 222zM289 946q0 -76 8 -127t29.5 -86t46 -54.5t73 -29.5t91.5 -12t120 -2q90 0 186.5 14.5t147.5 30.5l51 14q2 61 0 185q-2 78 -6 126t-18 95t-39 73.5t-67 48t-102 30t-146 8.5q-92 0 -142.5 -3.5t-102.5 -19.5t-76 -50 t-39 -92.5t-15 -148.5z" />
<glyph unicode=":" horiz-adv-x="407" d="M100 0v186h207v-186h-207zM100 627v186h207v-186h-207z" />
<glyph unicode=";" horiz-adv-x="417" d="M86 -276l107 276h-95v186h219v-186l-108 -276h-123zM104 627v186h207v-186h-207z" />
<glyph unicode="&#x3c;" d="M238 621v120l858 410v-137l-723 -334l723 -334v-137z" />
<glyph unicode="=" d="M238 444v129h858v-129h-858zM238 786v129h858v-129h-858z" />
<glyph unicode="&#x3e;" d="M238 209v137l723 334l-723 334v137l858 -410v-123z" />
<glyph unicode="?" horiz-adv-x="1060" d="M100 1331q170 47 408 47q227 0 328.5 -73.5t101.5 -288.5q0 -68 -1 -101.5t-8 -81t-21.5 -72t-41 -54t-67.5 -50t-101 -41.5q-125 -41 -158.5 -69.5t-33.5 -112.5v-39h-139v39q0 127 47 177.5t209 109.5q131 49 156.5 92t25.5 203q0 162 -67.5 205t-248.5 43 q-90 0 -183 -10.5t-142 -20.5l-49 -10zM350 0v186h172v-186h-172z" />
<glyph unicode="@" horiz-adv-x="1452" d="M119 682q0 233 29.5 369.5t105.5 212.5q53 53 149.5 80.5t159 30.5t175 3t176 -3t159.5 -30.5t150 -80.5q76 -76 101.5 -208t25.5 -374q0 -57 -1 -90t-7.5 -89.5t-20.5 -90t-36.5 -69.5t-61.5 -53.5t-93 -17.5q-59 0 -97 16.5t-48 36t-23.5 36t-30 16.5t-40.5 -25 l-64 -65q-57 -12 -114 -13q-186 0 -248 90.5t-62 309.5q0 229 69 313t273 84q55 0 125 -5t113 -11l43 -6v-531q0 -104 18 -133q20 -31 64 -31q111 0 111 328q0 223 -19.5 329.5t-79.5 168.5q-14 14 -31.5 26.5t-32 20.5t-37.5 15l-38 11q-14 4 -43 8.5t-40 5.5t-43 2t-40 1 h-41h-37h-36h-41q-7 0 -38.5 -1t-43 -2t-40 -5.5t-41.5 -8.5l-37 -11q-24 -7 -39 -15t-31.5 -20.5t-31.5 -26.5q-61 -61 -84.5 -172t-23.5 -326t22.5 -325.5t83.5 -172.5q41 -41 104.5 -62.5t109.5 -24.5t122 -3q84 0 177.5 4t142.5 8l51 7l8 -105q-164 -23 -358 -22 q-100 0 -166 5t-154 31.5t-139 77.5q-76 76 -105.5 212.5t-29.5 369.5zM541 674q0 -68 2 -106t13 -82t33.5 -65.5t62.5 -35.5t100 -14q43 0 71.5 11t44 22.5t21.5 44t7 51t1 65.5v406q-59 8 -124.5 8t-110 -14.5t-69 -35t-35.5 -64.5t-14 -82.5t-3 -108.5z" />
<glyph unicode="A" horiz-adv-x="1482" d="M0 0v94l72 19q35 8 53 47l450 1048q6 13 6 22q0 21 -28 25l-76 15v94h397l484 -1204q14 -37 53 -47l72 -19v-94h-355v94l62 12q33 8 33 27q0 8 -9 31l-104 250h-741l-105 -250q-8 -23 -8 -31q0 -18 33 -27l61 -12v-94h-350zM414 524h653l-270 690q-8 20 -12.5 28.5 t-13.5 15t-23.5 6.5t-23.5 -7.5t-13 -14.5t-13 -28z" />
<glyph unicode="B" horiz-adv-x="1409" d="M131 0v94l74 15q29 4 28 36v1074q0 33 -28 36l-74 15v94h780q188 0 273.5 -85t85.5 -280q0 -45 -4 -87t-9 -60l-6 -18l-196 -109q-16 -10 -16.5 -24.5t16.5 -24.5l215 -119q27 -61 26 -182q0 -195 -87 -285t-275 -90h-803zM373 119h467q170 0 241.5 51t71.5 206.5 t-71.5 206t-241.5 50.5h-467v-514zM373 748h450q162 0 232.5 50t70.5 199q0 152 -67.5 200t-229.5 48h-456v-497z" />
<glyph unicode="C" horiz-adv-x="1273" d="M123 682q0 240 28.5 375t100.5 207q109 115 444 114q213 0 475 -55l-18 -119q-274 47 -444 47q-266 0 -344 -77q-55 -55 -77 -168t-22 -326q0 -209 23.5 -322.5t79.5 -169.5q82 -82 352 -82q92 0 200.5 11.5t170.5 21.5l61 13l18 -113q-233 -53 -466 -53 q-172 0 -280 24.5t-171 89.5q-70 74 -100.5 211.5t-30.5 370.5z" />
<glyph unicode="D" horiz-adv-x="1509" d="M131 0v94l74 15q29 4 28 36v1074q0 33 -28 36l-74 15v94h705q109 0 191.5 -16.5t141 -44t99.5 -76.5t63.5 -99.5t35.5 -128t16 -146.5t3 -169t-3 -169t-16 -147.5t-35.5 -129t-63.5 -99.5t-99.5 -76.5t-141.5 -45t-191 -17.5h-705zM373 119h452q283 0 365 151 q51 96 53 348v64q0 266 -33 362q-53 158 -247 191q-59 10 -138 10h-452v-1126z" />
<glyph unicode="E" horiz-adv-x="1224" d="M131 0v94l74 15q29 4 28 36v1074q0 33 -28 36l-74 15v94h993v-119h-751v-487h733v-117h-733v-522h751v-119h-993z" />
<glyph unicode="F" horiz-adv-x="1128" d="M131 0v94l74 15q29 4 28 36v1074q0 33 -28 36l-74 15v94h950v-119h-708v-497h690v-119h-690v-484q0 -33 28 -36l74 -15v-94h-344z" />
<glyph unicode="G" horiz-adv-x="1390" d="M123 680q0 154 11 261.5t41 186t71 125.5t111.5 76t151.5 38t202 9q115 0 240.5 -15t193.5 -30l67 -16l-18 -117q-262 53 -489 53q-96 0 -156 -6t-114 -27.5t-82.5 -58.5t-50 -102.5t-29 -154.5t-7.5 -222q0 -135 7.5 -224t29 -156t50 -102.5t84 -57t115.5 -28t159 -6.5 q115 0 216 12.5t146 24.5l43 15v551h139v-709h-118l-13 72q-6 33 -34 32q-16 0 -41 -16l-127 -82q-86 -20 -205 -20q-150 0 -242 14t-167 54t-111.5 120t-55 200t-18.5 306z" />
<glyph unicode="H" horiz-adv-x="1595" d="M131 0v94l74 15q29 4 28 36v1074q0 33 -28 36l-74 15v94h344v-94l-74 -15q-29 -4 -28 -36v-467h850v467q0 33 -29 36l-74 15v94h344v-94l-73 -15q-29 -4 -29 -36v-1074q0 -33 29 -36l73 -15v-94h-344v94l74 15q29 4 29 36v492h-850v-492q0 -33 28 -36l74 -15v-94h-344z " />
<glyph unicode="I" horiz-adv-x="606" d="M131 0v94l74 15q29 4 28 36v1074q0 33 -28 36l-74 15v94h344v-94l-74 -15q-29 -4 -28 -36v-1074q0 -33 28 -36l74 -15v-94h-344z" />
<glyph unicode="J" horiz-adv-x="851" d="M37 6l12 107q119 -16 238 -17q127 0 163.5 45t36.5 181v897q0 33 -28 36l-74 15v94h344v-94l-74 -15q-29 -4 -28 -36v-914q0 -195 -80 -259t-256 -64q-63 0 -127 6t-94 12z" />
<glyph unicode="K" horiz-adv-x="1376" d="M131 0v94l74 15q29 4 28 36v1074q0 33 -28 36l-74 15v94h344v-94l-74 -15q-29 -4 -28 -36v-418q0 -39 14 -56q16 -18 51 -18q39 0 90 47l465 430q14 14 15 27q0 23 -29 29l-45 10v94h379v-94l-76 -17q-41 -10 -74 -39l-569 -528l580 -522q35 -31 48 -38t50 -15l63 -17 v-94h-399v94l37 8q43 8 43 33q0 14 -19 33l-469 424q-57 49 -89.5 49t-51.5 -20q-14 -16 -14 -56v-420q0 -33 28 -36l74 -15v-94h-344z" />
<glyph unicode="L" horiz-adv-x="1089" d="M131 0v94l74 15q29 4 28 36v1074q0 33 -28 36l-74 15v94h344v-94l-74 -15q-29 -4 -28 -36v-1098h680v-121h-922z" />
<glyph unicode="M" horiz-adv-x="1857" d="M131 0v94l74 15q29 4 28 36v1074q0 33 -28 36l-74 15v94h393l379 -762q10 -16 20.5 -16t18.5 14l381 764h403v-94l-73 -15q-29 -4 -29 -36v-1074q0 -33 29 -36l73 -15v-94h-344v94l74 15q29 4 29 36v1061q0 55 -43 56q-29 0 -47 -39l-381 -762h-183l-380 762 q-20 39 -48 39q-43 0 -43 -56v-1061q0 -33 29 -36l74 -15v-94h-332z" />
<glyph unicode="N" horiz-adv-x="1652" d="M131 0v94l74 15q29 4 28 36v1074q0 33 -28 36l-74 15v94h406l663 -1212q20 -37 47 -37t35 13t8 42v1049q0 33 -28 36l-74 15v94h334v-94l-74 -15q-29 -4 -29 -36v-1219h-299l-665 1223q-23 39 -49.5 39t-35 -13.5t-8.5 -42.5v-1061q0 -33 29 -36l74 -15v-94h-334z" />
<glyph unicode="O" horiz-adv-x="1378" d="M123 680q0 160 7 262t30.5 186t59.5 128t104.5 74t151.5 39t214 9q133 0 221 -10t155 -45t101.5 -79t56 -131t26.5 -181t5 -252t-5 -252t-26.5 -181t-56 -130t-101.5 -77t-154 -44t-220 -10t-222 11t-154.5 45t-101.5 78t-57.5 131t-27.5 181t-6 248zM266 680 q0 -102 2 -169t9.5 -132.5t19.5 -102t35.5 -71.5t52.5 -51.5t75 -29.5t100 -17.5t132 -4.5q106 0 172 6.5t116 35t73.5 59t38 108.5t17.5 152t3 217v133q0 45 -3 110.5t-8 94.5t-16.5 73t-27 61l-39 42t-52.5 33l-72 19q-42 11 -91 13.5t-113 2.5q-102 0 -163.5 -5.5 t-115 -30t-78 -58t-42 -105.5t-21.5 -157t-4 -226z" />
<glyph unicode="P" horiz-adv-x="1376" d="M131 0v94l74 15q29 4 28 36v1074q0 33 -28 36l-74 15v94h756q387 0 387 -410q0 -49 -1 -77.5t-8.5 -84t-20.5 -90t-41.5 -79.5t-67.5 -71t-101.5 -44.5t-142.5 -18.5h-131l-219 9l-99 67q-25 16 -39 17q-31 0 -30 -39v-398q0 -33 28 -36l74 -15v-94h-344zM373 631 q119 -25 391 -25q74 0 116 2t91 12.5t72.5 32t47 57t31.5 91t8 133.5q0 184 -74.5 247.5t-242.5 63.5h-440v-614z" />
<glyph unicode="Q" horiz-adv-x="1454" d="M123 694q0 160 7 261.5t31.5 184.5t59.5 125t103.5 69.5t150.5 35.5t215 8q135 0 222 -9t154 -42t101.5 -75t56 -128t26.5 -179t5 -251q0 -240 -32 -370l-129 -127q-25 -25 -25 -41q0 -37 66 -41h12l276 -15v-100h-686h-45q-133 0 -222 11.5t-154.5 45t-101.5 77.5 t-57.5 131t-27.5 181t-6 248zM266 692q0 -102 2 -167.5t9.5 -131t19.5 -103.5t35.5 -74t52.5 -52.5t75 -29.5t100 -17t132 -4q80 0 134.5 4t101.5 18.5t74.5 29.5t50 53t33 73t17.5 103.5t8 130t1 167.5q0 311 -27 400q-33 113 -141 145q-82 25 -254 25q-104 0 -163.5 -4.5 t-114 -27t-78 -55t-42 -103.5t-22.5 -155t-4 -225z" />
<glyph unicode="R" horiz-adv-x="1439" d="M131 0v94l74 15q29 4 28 36v1074q0 33 -28 36l-74 15v94h733q225 0 317.5 -84t92.5 -289q0 -170 -82 -260q-41 -43 -107 -72q-51 -20 -122 -30q-31 -4 -39 -11q-16 -10 -17 -34q0 -14 19 -43l254 -381q12 -18 26.5 -27.5t19.5 -10.5t36 -9l75 -19v-94h-221l-305 457v170 h-438v-482q0 -33 28 -36l74 -15v-94h-344zM373 743h446q199 0 260 64q51 51 51 186q0 137 -51 189q-61 63 -260 63h-446v-502z" />
<glyph unicode="S" horiz-adv-x="1261" d="M123 985q0 207 88 293q57 55 151.5 77.5t262.5 22.5q213 0 442 -45l-16 -112q-213 39 -420 39q-121 0 -195 -15.5t-110.5 -53.5t-48 -84t-11.5 -124q0 -139 86 -178q49 -20 238 -33q14 -2 26 -2q242 -16 287 -25q162 -33 211 -159q27 -70 27 -180q0 -242 -102.5 -331 t-395.5 -89q-109 0 -231.5 12t-190.5 25l-67 12l14 119q258 -47 473 -48q203 0 278.5 54.5t75.5 206.5q0 72 -11 114.5t-28.5 70.5t-66.5 41t-97.5 19t-148.5 11q-256 12 -334 36q-141 45 -174 197q-12 55 -12 129z" />
<glyph unicode="T" horiz-adv-x="1179" d="M10 1243v121h1159v-121h-510v-1098q0 -33 29 -36l74 -15v-94h-344v94l74 15q29 4 28 36v1098h-510z" />
<glyph unicode="U" horiz-adv-x="1568" d="M139 1270v94h344v-94l-73 -15q-29 -4 -29 -36v-744q0 -236 65.5 -303.5t296.5 -67.5q115 0 228.5 13.5t171.5 27.5l55 15v1059q0 33 -29 36l-73 15v94h344v-94l-74 -15q-29 -4 -29 -36v-1074q0 -33 29 -36l74 -15v-94h-221l-13 72q-6 33 -35 32q-16 0 -38 -14l-129 -84 q-131 -20 -273 -20q-156 0 -249 21.5t-148 79.5t-73.5 144t-18.5 236v752q0 33 -29 36z" />
<glyph unicode="V" horiz-adv-x="1443" d="M43 1270v94h348v-94l-63 -15q-33 -8 -23 -43l357 -1038q12 -35 24 -49t41 -14t41 14t25 49l348 1040q10 33 -23 41l-63 15v94h346v-94l-60 -17q-41 -10 -55 -49l-426 -1204h-274l-426 1204q-10 25 -19.5 34t-36.5 15z" />
<glyph unicode="W" horiz-adv-x="2318" d="M53 1270v94h350v-94l-63 -15q-29 -8 -23 -43l275 -1038q8 -33 22.5 -48t43 -15t42 14t23.5 49l309 1190h258l320 -1190q8 -33 21.5 -48t41.5 -15q31 0 44.5 14t21.5 49l264 1040q10 33 -25 41l-61 15v94h348v-94l-59 -17q-27 -6 -37 -15t-17 -34l-329 -1204h-307 l-320 1233q-10 37 -39 37t-37 -37l-321 -1233h-299l-330 1204q-8 25 -18.5 34t-36.5 15z" />
<glyph unicode="X" horiz-adv-x="1376" d="M51 0v94l66 17q33 8 49 32l369 576l-338 502q-16 25 -50 32l-65 17v94h348v-94l-68 -19q-27 -6 -10 -32l260 -388q20 -33 36 -45t46.5 -12t46 12.5t35.5 44.5l260 388q16 27 -10 32l-68 19v94h342v-94l-67 -17q-29 -6 -47 -32l-344 -502l368 -576q16 -25 50 -32l65 -17 v-94h-352v94l65 19q27 6 13 32l-277 457q-18 33 -34.5 45t-47 12t-46 -12t-36.5 -45l-282 -444q-10 -16 -11 -25q0 -14 23 -22l59 -17v-94h-348z" />
<glyph unicode="Y" horiz-adv-x="1269" d="M49 1270v94h344v-94l-74 -15q-29 -4 -28 -36v-375q0 -184 67.5 -238.5t294.5 -54.5q150 0 316 55v613q0 33 -29 36l-74 15v94h344v-94l-73 -15q-29 -4 -29 -36v-822q0 -80 -4 -125t-18.5 -99t-46 -83t-85 -56.5t-136.5 -37.5t-197 -10q-104 0 -203 9t-146 17l-47 11 l17 110q154 -31 383 -31q74 0 127 6.5t91 15.5t61.5 30.5t36.5 39t19.5 55.5t7.5 64.5t1 81.5v113q0 43 -35 43q-14 0 -35 -16l-129 -89q-98 -14 -195 -14q-250 0 -336.5 89t-86.5 313v385q0 33 -29 36z" />
<glyph unicode="Z" horiz-adv-x="1277" d="M113 1245v119h999v-264l-831 -875q-25 -25 -25 -51q0 -51 68 -51h821v-123h-1024v244l837 897q29 33 25 65q-8 39 -65 39h-805z" />
<glyph unicode="[" horiz-adv-x="561" d="M166 -408v1770h299v-102h-176v-1567h176v-101h-299z" />
<glyph unicode="\" horiz-adv-x="841" d="M68 1362h122l719 -1770h-123z" />
<glyph unicode="]" horiz-adv-x="561" d="M96 -307h178v1567h-178v102h301v-1770h-301v101z" />
<glyph unicode="^" horiz-adv-x="1097" d="M94 750l363 614h184l365 -614h-160l-299 507l-295 -507h-158z" />
<glyph unicode="_" horiz-adv-x="1019" d="M0 -137h1020v-129h-1020v129z" />
<glyph unicode="`" horiz-adv-x="501" d="M96 1249l66 99l244 -205l-41 -74z" />
<glyph unicode="a" horiz-adv-x="1116" d="M94 279q0 164 66.5 224t255.5 62l415 6v119q0 109 -83 146q-57 25 -187 24q-86 0 -181 -11t-149 -22l-53 -12l-18 103q168 47 399 47q207 0 295 -50q106 -53 107 -221v-565q0 -20 5 -27.5t23 -9.5l53 -10v-82h-200l-8 51q-6 33 -33 33q-14 0 -43 -18l-96 -66 q-109 -14 -195 -14q-217 0 -295 60.5t-78 232.5zM229 276q0 -123 53.5 -154.5t206.5 -31.5q63 0 148.5 11.5t140.5 21.5l53 12v340l-329 -6h-63q-30 0 -55.5 -1t-47 -5t-38.5 -11.5t-29.5 -21.5t-21.5 -34.5t-13.5 -50.5t-4.5 -69z" />
<glyph unicode="b" horiz-adv-x="1077" d="M57 1282v82h209v-449q0 -43 37 -43q16 0 35 15l94 63q80 14 180 15q211 0 287 -117t76 -369q0 -289 -91 -391t-362 -102q-221 0 -383 51v1198q0 20 -5 27.5t-23 9.5zM268 119q115 -29 279 -29q182 0 237.5 74t55.5 315q0 231 -55.5 306t-231.5 75q-63 0 -135 -10 t-111 -21l-39 -10v-700z" />
<glyph unicode="c" horiz-adv-x="952" d="M102 475q0 295 92.5 392.5t340.5 97.5q80 0 163.5 -10.5t128.5 -20.5l43 -10l-16 -97q-147 33 -299 33q-197 0 -257 -70.5t-60 -314.5t60 -314.5t257 -70.5q68 0 142.5 8t115.5 17l41 8l16 -96q-158 -41 -335 -41q-248 0 -340.5 97t-92.5 392z" />
<glyph unicode="d" horiz-adv-x="1083" d="M102 475q0 92 7.5 158.5t31 133.5t64.5 106.5t110.5 65.5t165.5 26q186 0 328 -33v303q0 20 -5 27.5t-24 9.5l-53 10v82h211v-1235q0 -20 5 -27.5t24 -9.5l53 -10v-82h-199l-8 51q-6 33 -35 33q-12 0 -41 -18l-98 -66q-78 -14 -174 -14q-113 0 -187.5 33.5t-111.5 104.5 t-50.5 151.5t-13.5 199.5zM238 475q0 -233 55 -308t231 -75q63 0 135 10.5t111 20.5l39 10v703q-147 25 -285 24q-176 0 -231 -77t-55 -308z" />
<glyph unicode="e" horiz-adv-x="1079" d="M102 475q0 207 50 322q41 94 134 131t263 37q279 0 356 -97q72 -92 72 -315q0 -33 -4 -111q-279 -16 -318 -16l-282 8l-64 43q-23 14 -37 15q-35 0 -34 -58v-6q0 -193 61 -260q68 -76 266 -76q82 0 166 8.5t127 16.5l43 8l19 -98q-133 -41 -347 -41q-129 0 -207.5 16 t-143 66.5t-92.5 148.5t-28 258zM240 545q63 -10 140 -14.5t122 -4.5h45q42 -1 82 -1q119 0 211 10q0 150 -26 218t-79 88.5t-174 20.5q-78 0 -128 -4t-87 -21.5t-54.5 -33t-29.5 -60.5t-15 -81.5t-7 -116.5z" />
<glyph unicode="f" horiz-adv-x="636" d="M31 852v100h180v129q0 96 17.5 157.5t74.5 102.5q59 43 209 43l156 -14l-9 -94q-66 8 -129 8q-123 0 -155 -35q-35 -39 -35 -170v-127h301v-100h-301v-723q0 -20 5 -27.5t24 -9.5l53 -10v-82h-293v80l53 10q18 4 23.5 11.5t5.5 25.5v725h-180z" />
<glyph unicode="g" horiz-adv-x="1095" d="M117 639q0 195 80 261q77 65 315 65h14l541 -7v-79l-188 -13q-35 -4 -39 -16q-8 -18 8 -41l86 -123q4 -33 4 -47q0 -197 -86 -262.5t-336 -65.5q-139 0 -229 29q-33 -70 -33 -131q0 -63 25.5 -80.5t142.5 -17.5h272q195 0 261.5 -49.5t66.5 -206.5q0 -106 -37 -158.5 t-142.5 -78.5t-320.5 -26q-96 0 -189 7.5t-138 15.5l-45 6l10 107q178 -29 358 -29q182 0 250 16q70 14 97.5 43t27.5 95q0 80 -27.5 107.5t-103.5 35.5q-39 4 -129 4h-275q-53 0 -87.5 4t-72.5 18.5t-56 48.5q-16 30 -15 76v11l4 55l96 106q12 16 13 27q0 16 -21 29 q-57 35 -79.5 89t-22.5 175zM254 639q0 -84 11 -131t49 -69.5t80 -27.5t132 -5q88 0 132 6t82 29.5t50.5 70.5t12.5 131q0 133 -23 223q-152 6 -254 6q-168 0 -220 -40.5t-52 -192.5z" />
<glyph unicode="h" horiz-adv-x="1136" d="M80 0v82l53 10q18 2 23.5 9.5t5.5 27.5v1108q0 18 -5 25.5t-24 11.5l-53 10v80h211v-446q0 -43 35 -44q14 0 36 15l93 63q109 12 163 13q213 0 285 -71t72 -278v-489q0 -18 5 -25.5t24 -11.5l53 -10v-80h-293v82l53 10q18 2 23.5 9.5t5.5 27.5v463q0 170 -48 219t-216 49 q-63 0 -136 -8t-114 -16l-41 -11v-698q0 -18 5 -25.5t23 -11.5l54 -10v-80h-293z" />
<glyph unicode="i" horiz-adv-x="483" d="M100 0v80l54 10q18 4 23 11.5t5 25.5v696q0 20 -5 27.5t-23 9.5l-54 10v82h211v-823q0 -20 5.5 -27.5t23.5 -9.5l53 -10v-82h-293zM143 1208v156h162v-156h-162z" />
<glyph unicode="j" horiz-adv-x="468" d="M-80 -391l10 96q53 -6 84 -6q106 0 134 21.5t28 105.5v997q0 20 -5 27.5t-24 9.5l-53 10v82h211v-1169q0 -186 -235 -186zM137 1208v156h162v-156h-162z" />
<glyph unicode="k" horiz-adv-x="1015" d="M80 0v82l53 10q18 2 23.5 9.5t5.5 27.5v1108q0 18 -5 25.5t-24 11.5l-53 10v80h211v-768q0 -55 53 -55q29 0 66 37l383 374h151v-84l-76 -12q-18 -2 -32 -16l-336 -324l360 -393q16 -18 45 -27l70 -16v-80h-178l-387 442q-31 37 -66 37q-53 0 -53 -53v-299q0 -18 5 -25.5 t23 -11.5l54 -10v-80h-293z" />
<glyph unicode="l" horiz-adv-x="462" d="M80 0v80l53 10q18 4 23.5 11.5t5.5 25.5v1108q0 20 -5 27.5t-24 9.5l-53 10v82h211v-1235q0 -20 5 -27.5t23 -9.5l54 -10v-82h-293z" />
<glyph unicode="m" horiz-adv-x="1796" d="M100 0v80l54 10q18 4 23 11.5t5 25.5v696q0 20 -5 27.5t-23 9.5l-54 10v82h191l8 -51q6 -33 33 -33q12 0 41 19l98 65q92 12 147 13q98 0 162 -13.5t80.5 -23.5t46.5 -37q29 -18 37 -18.5t33 14.5l104 61q74 16 197 17q213 0 284.5 -71t71.5 -278v-489q0 -33 29 -37 l53 -10v-82h-293v82l54 10q18 2 23 9t5 28v463q0 172 -48 221t-216 49q-86 0 -305 -31q39 -82 39 -159v-541q0 -20 5 -27.5t24 -9.5l53 -10v-82h-293v80l53 10q18 4 23.5 11.5t5.5 25.5v463q0 172 -48 221t-216 49q-63 0 -131 -8t-103 -16l-37 -9v-698q0 -20 5.5 -27.5 t23.5 -9.5l53 -10v-82h-293z" />
<glyph unicode="n" horiz-adv-x="1157" d="M100 0v82l54 10q18 2 23 9.5t5 27.5v696q0 31 -28 37l-54 10v80h189l8 -51q6 -33 33 -33q14 0 43 19l98 65q113 12 168 13q213 0 284.5 -71t71.5 -278v-489q0 -33 29 -37l53 -10v-82h-293v82l54 10q29 4 28 37v465q0 170 -48 219t-216 49q-63 0 -136 -8t-114 -16l-41 -11 v-698q0 -18 5.5 -25.5t23.5 -11.5l53 -10v-80h-293z" />
<glyph unicode="o" horiz-adv-x="1069" d="M102 475q0 127 10.5 207t36 139.5t76.5 88t123 42t186.5 13.5t186.5 -13.5t123 -42t76.5 -88t36 -139.5t10.5 -207t-10.5 -207t-36 -139t-76.5 -88t-123 -42t-186.5 -13t-186.5 13t-123 42t-76.5 88t-36 139t-10.5 207zM238 475q0 -94 3 -149.5t14 -103.5t28.5 -70.5 t54.5 -39t80 -20.5t116.5 -4t116.5 4t80 20.5t54.5 39t28.5 70.5t14 103.5t3 149.5t-3 149.5t-14 103.5t-28.5 70.5t-54.5 39t-80 20.5t-116.5 4t-116.5 -4t-80 -20.5t-54.5 -39t-28.5 -70.5t-14 -103.5t-3 -149.5z" />
<glyph unicode="p" horiz-adv-x="1099" d="M80 -328l53 11q29 6 29 36v1104q0 20 -5 27.5t-24 9.5l-53 10v82h199l8 -51q6 -33 32 -33q12 0 41 19l99 65q92 12 176 13q211 0 286.5 -117t75.5 -369q0 -231 -53 -336q-84 -158 -356 -157q-100 0 -297 37v-302q0 -20 5 -27t23 -9l54 -11v-82h-293v80zM291 117 q129 -27 278 -27q182 0 237.5 74t55.5 315q0 231 -55 306t-232 75q-63 0 -134.5 -10t-110.5 -21l-39 -10v-702z" />
<glyph unicode="q" horiz-adv-x="1075" d="M102 475q0 117 13.5 196t51.5 150.5t116.5 107.5t197.5 36q90 0 205 -12.5t182 -24.5l70 -13v-1194q0 -20 5 -27t24 -9l53 -11v-82h-211v453q0 41 -35 41q-16 0 -37 -14l-104 -74q-82 -12 -168 -12q-113 0 -187.5 33.5t-111.5 104.5t-50.5 151.5t-13.5 199.5zM238 475.5 q0 -231.5 55 -308.5t231 -77q63 0 135 10.5t111 20.5l39 10v705q-147 25 -285 24q-176 0 -231 -76.5t-55 -308z" />
<glyph unicode="r" horiz-adv-x="751" d="M100 0v82l54 10q18 2 23 9.5t5 27.5v696q0 31 -28 37l-54 10v80h189l8 -51q6 -33 33 -33q14 0 43 19l98 65q113 12 168 13q80 0 131 -9l-8 -122q-76 10 -160 10q-76 0 -148.5 -5t-107.5 -12l-35 -4v-696q0 -18 5.5 -25.5t23.5 -11.5l53 -10v-80h-293z" />
<glyph unicode="s" horiz-adv-x="1040" d="M111 690q0 154 87 214.5t300 60.5q80 0 169 -9.5t138 -17.5l49 -8l-14 -101q-186 29 -328 29q-168 0 -222 -38t-54 -118q0 -88 26 -114q14 -14 33.5 -23.5t54.5 -13.5t56.5 -5t76 -2t74.5 -1q80 -2 122 -6.5t99.5 -18.5t84 -43t47 -81t20.5 -128q0 -154 -92.5 -217 t-329.5 -63q-92 0 -189.5 10t-148.5 20l-51 9l16 104q170 -35 375 -35q203 0 258 62q35 35 35 106q0 82 -31 113q-43 47 -280 49q-190 6 -250 27q-131 46 -131 239z" />
<glyph unicode="t" horiz-adv-x="692" d="M12 852v100h181v254h129v-254h272v-100h-272v-604q0 -100 30.5 -129t134.5 -29l105 10l12 -90q-102 -18 -168 -18q-141 0 -190 49q-53 51 -53 248v563h-181z" />
<glyph unicode="u" horiz-adv-x="1140" d="M90 872v80h211v-592q0 -170 48 -220t216 -50q63 0 133 10.5t107 18.5l37 10v696q0 31 -29 37l-53 10v80h211v-825q0 -18 5 -25.5t23 -11.5l54 -10v-80h-191l-8 51q-6 33 -33 33q-14 0 -41 -18l-98 -66q-98 -14 -154 -14q-211 0 -283.5 71.5t-72.5 278.5v489q0 31 -29 37z " />
<glyph unicode="v" horiz-adv-x="1044" d="M20 872v80h302v-80l-54 -12q-33 -8 -22 -41l217 -657q8 -29 13 -40t16.5 -21.5t29.5 -10.5q27 0 38 15.5t24 56.5l207 657q10 33 -21 41l-53 10v82h307v-80l-47 -12q-23 -6 -31 -12t-14 -25l-277 -823h-266l-276 823q-10 29 -43 37z" />
<glyph unicode="w" horiz-adv-x="1595" d="M27 872v80h305v-82l-53 -10q-31 -8 -23 -41l141 -657q16 -72 60 -72q27 0 40 17.5t21 54.5l172 770h219l176 -770q16 -72 64 -72q45 0 57 72l133 657q8 35 -20 41l-53 12v80h303v-80l-47 -12q-25 -6 -33 -12t-12 -25l-203 -823h-270l-199 842q-4 12 -12.5 12t-12.5 -12 l-192 -842h-262l-207 823q-6 29 -43 37z" />
<glyph unicode="x" horiz-adv-x="1036" d="M41 0v80l53 12q25 6 43 37l242 367l-234 327q-23 33 -41 37l-51 12v80h303v-80l-49 -12q-29 -4 -29 -21q0 -11 11 -26l168 -254q29 -43 57 -43q25 0 51 39l170 258q10 14 6 28.5t-22 18.5l-51 12v80h299v-80l-54 -12q-25 -6 -39 -29q-2 -6 -4 -8l-219 -327l248 -367 q23 -31 43 -37l53 -12v-80h-311v80l49 12q29 4 29 25q0 10 -10 26l-187 285q-23 33 -51 33q-27 0 -49 -33l-186 -285q-8 -16 -9 -26q0 -20 27 -25l49 -12v-80h-305z" />
<glyph unicode="y" horiz-adv-x="1107" d="M80 872v80h293v-82l-54 -10q-18 -2 -23 -9t-5 -28v-463q0 -170 48 -220t216 -50q63 0 123.5 10.5t89.5 20.5l29 10v694q0 31 -29 37l-53 10v80h293v-82l-54 -10q-18 -2 -23 -9t-5 -28v-782q0 -279 -79 -364t-341 -85q-74 0 -145.5 7.5t-106.5 15.5l-37 6l14 100 q119 -27 275 -26q106 0 163.5 12t87 53t36 89.5t6.5 150.5v37q0 43 -35 43q-12 0 -37 -17l-94 -65q-59 -12 -115 -12q-211 0 -283.5 71.5t-72.5 278.5v489q0 31 -29 37z" />
<glyph unicode="z" horiz-adv-x="929" d="M82 852v100h735v-235l-600 -549q-14 -14 -14 -31q0 -35 43 -35h602v-102h-752v221l598 561q18 18 17 43q-6 27 -43 27h-586z" />
<glyph unicode="{" horiz-adv-x="602" d="M106 420v112q59 18 83 60.5t24 128.5v336q0 152 37 219q47 86 174 86h82v-111q-80 0 -119 -28q-51 -39 -51 -170v-340q0 -98 -25.5 -150.5t-87.5 -87.5q61 -35 87 -86t26 -149v-342q0 -117 45 -162q35 -35 113 -35h12v-109h-82q-127 0 -174 84q-37 68 -37 220v337 q0 82 -24 124.5t-83 62.5z" />
<glyph unicode="|" horiz-adv-x="464" d="M170 -340v1702h127v-1702h-127z" />
<glyph unicode="}" horiz-adv-x="602" d="M96 -299q80 0 119 29q53 43 53 170v342q0 96 24.5 149t86.5 86q-61 35 -86 87t-25 151v340q0 119 -43 162q-35 35 -114 34h-15v111h82q127 0 176 -86q37 -68 37 -219v-336q0 -84 23.5 -126t83.5 -63v-112q-59 -20 -83 -61.5t-24 -125.5v-337q0 -150 -37 -220 q-20 -39 -68 -61.5t-108 -22.5h-82v109z" />
<glyph unicode="~" horiz-adv-x="1155" d="M88 1247q63 127 125.5 179.5t153.5 52.5q76 0 227 -72q143 -68 203 -68q57 0 98 31t88 113l86 -51q-55 -111 -115 -160q-80 -66 -170 -66q-84 0 -174 45l-118 56q-84 39 -136 39q-55 0 -97 -35t-87 -119z" />
<glyph unicode="&#xa2;" d="M283 475.5q0 280.5 83 380.5t298 109v163h110v-165q68 -2 137.5 -12.5t104.5 -18.5l35 -8l-17 -97q-147 33 -299 33q-197 0 -257 -70.5t-60 -314.5t60.5 -314.5t256.5 -70.5q68 0 142.5 8t115.5 17l41 8l17 -96q-123 -33 -277 -39v-170h-110v168q-215 8 -298 108.5 t-83 381z" />
<glyph unicode="&#xa3;" d="M141 537v120h154v349q0 68 3 103.5t21.5 84.5t55.5 86q100 98 348 98q102 0 208.5 -11t162.5 -24l53 -10l-17 -110q-178 39 -348 39q-227 0 -299 -70q-25 -25 -36 -59.5t-12 -52t-1 -70.5v-353h428v-120h-428v-189q0 -90 -19.5 -139t-78.5 -103l856 11v-117h-1020v106 q74 23 98.5 81.5t24.5 215.5v134h-154z" />
<glyph unicode="&#xa5;" d="M164 1282v82h309v-80l-57 -10q-18 -2 -24.5 -17.5t1.5 -27.5l234 -481q20 -33 40.5 -33t41.5 33l233 481q8 12 2 27.5t-24 17.5l-58 8v82h307v-80l-55 -10q-14 -2 -29 -33l-161 -315h188v-113h-246l-104 -201h258v-112h-297v-371q0 -20 6 -26.5t23 -10.5l53 -10v-82h-285 v82l53 10q18 2 23.5 9.5t5.5 27.5v371h-297v112h258l-100 201h-240v113h183l-158 315q-12 25 -19 29q-4 2 -10 2z" />
<glyph unicode="&#xa9;" horiz-adv-x="1632" d="M119 684q0 160 8 262.5t38 186.5t74 128t128 73.5t186 38.5t262 9t263.5 -9t186.5 -38.5t127 -73.5t73.5 -128t38.5 -186.5t9 -262.5t-9 -262.5t-38.5 -186t-73.5 -128t-127 -74t-186.5 -38.5t-263.5 -9t-262 9t-186 38.5t-128 74t-74 128t-38 186t-8 262.5zM201 684 q0 -152 7 -246t34.5 -168.5t63.5 -111.5t114 -61.5t163 -30t232.5 -5.5t233.5 5.5t163.5 30t113.5 61.5t63.5 111.5t35 168.5t7.5 246t-7.5 246t-35 169t-63.5 111.5t-113.5 61t-163.5 30t-233.5 5.5t-232.5 -5.5t-163 -30t-114 -61t-63.5 -111.5t-34.5 -169t-7 -246z M492 688q0 250 67.5 323.5t271.5 73.5q47 0 98.5 -5t83 -10t59.5 -11t30 -6l-10 -88q-121 27 -263 26q-80 0 -117.5 -7t-68.5 -39t-39 -90t-8 -166.5t8 -166t38 -89.5t69 -39t118 -7q41 0 89.5 4t79.5 8l62 9q30 4 32 4l10 -86q-131 -33 -271 -33q-106 0 -166.5 13 t-102.5 57.5t-56 119t-14 205.5z" />
<glyph unicode="&#xad;" horiz-adv-x="577" d="M96 430v133h385v-133h-385z" />
<glyph unicode="&#xae;" horiz-adv-x="1632" d="M119 684q0 160 8 262.5t38 186.5t74 128t128 73.5t186 38.5t262 9t263.5 -9t186.5 -38.5t127 -73.5t73.5 -128t38.5 -186.5t9 -262.5t-9 -262.5t-38.5 -186t-73.5 -128t-127 -74t-186.5 -38.5t-263.5 -9t-262 9t-186 38.5t-128 74t-74 128t-38 186t-8 262.5zM201 684 q0 -152 7 -246t34.5 -168.5t63.5 -111.5t114 -61.5t163 -30t232.5 -5.5t233.5 5.5t163.5 30t113.5 61.5t63.5 111.5t35 168.5t7.5 246t-7.5 246t-35 169t-63.5 111.5t-113.5 61t-163.5 30t-233.5 5.5t-232.5 -5.5t-163 -30t-114 -61t-63.5 -111.5t-34.5 -169t-7 -246z M483 301v68l54 10q10 0 10 16v588q0 14 -10 14l-54 11v67h432q133 0 188.5 -49t55.5 -168q0 -94 -45 -145q-25 -25 -59 -41q-35 -14 -70 -17q-31 -4 -31 -24q0 -10 11 -25l135 -200q12 -18 45 -27l43 -10v-68h-139l-172 258v88h-228v-252q0 -16 10 -16l52 -10v-68h-228z M649 727h240q102 0 137 35q29 29 29 98q0 72 -29 101q-33 33 -137 32h-240v-266z" />
<glyph unicode="&#xb4;" horiz-adv-x="501" d="M96 1143l246 205l64 -99l-265 -180z" />
<glyph unicode="&#x2000;" horiz-adv-x="802" />
<glyph unicode="&#x2001;" horiz-adv-x="1605" />
<glyph unicode="&#x2002;" horiz-adv-x="802" />
<glyph unicode="&#x2003;" horiz-adv-x="1605" />
<glyph unicode="&#x2004;" horiz-adv-x="534" />
<glyph unicode="&#x2005;" horiz-adv-x="401" />
<glyph unicode="&#x2006;" horiz-adv-x="266" />
<glyph unicode="&#x2007;" horiz-adv-x="266" />
<glyph unicode="&#x2008;" horiz-adv-x="200" />
<glyph unicode="&#x2009;" horiz-adv-x="319" />
<glyph unicode="&#x200a;" horiz-adv-x="88" />
<glyph unicode="&#x2010;" horiz-adv-x="577" d="M96 430v133h385v-133h-385z" />
<glyph unicode="&#x2011;" horiz-adv-x="577" d="M96 430v133h385v-133h-385z" />
<glyph unicode="&#x2012;" horiz-adv-x="577" d="M96 430v133h385v-133h-385z" />
<glyph unicode="&#x2013;" horiz-adv-x="921" d="M96 430v133h729v-133h-729z" />
<glyph unicode="&#x2014;" horiz-adv-x="1468" d="M96 430l2 133h1274v-133h-1276z" />
<glyph unicode="&#x2018;" horiz-adv-x="397" d="M100 1098v166l109 235h102l-106 -235h74v-166h-179z" />
<glyph unicode="&#x2019;" horiz-adv-x="397" d="M86 963l107 235h-74v166h178v-166l-109 -235h-102z" />
<glyph unicode="&#x201c;" horiz-adv-x="700" d="M100 1098v166l109 235h102l-106 -235h74v-166h-179zM403 1098v166l109 235h102l-106 -235h74v-166h-179z" />
<glyph unicode="&#x201d;" horiz-adv-x="700" d="M86 963l107 235h-74v166h178v-166l-109 -235h-102zM389 963l107 235h-74v166h178v-166l-108 -235h-103z" />
<glyph unicode="&#x2022;" horiz-adv-x="727" d="M88 692q0 119 82 202t196.5 81t193.5 -84t79 -199t-80 -199.5t-192 -84.5q-115 -2 -197 81.5t-82 202.5z" />
<glyph unicode="&#x2026;" horiz-adv-x="1114" d="M100 0v186h207v-186h-207zM455 0v186h204v-186h-204zM807 0v186h207v-186h-207z" />
<glyph unicode="&#x202f;" horiz-adv-x="319" />
<glyph unicode="&#x205f;" horiz-adv-x="401" />
<glyph unicode="&#x20ac;" d="M66 481v117h153v84v84h-153v117h159q18 279 123 383q111 113 445 112q213 0 475 -55l-19 -119q-274 47 -444 47q-137 0 -218 -16t-126 -61q-78 -78 -92 -291h589v-117h-596v-86v-82h596v-117h-589q18 -215 96 -293q82 -82 352 -82q92 0 199.5 11.5t171.5 21.5l61 13 l19 -113q-233 -53 -467 -53q-342 0 -451 114q-104 106 -125 381h-159z" />
<glyph unicode="&#x2122;" horiz-adv-x="1710" d="M68 1274v90h608v-90h-256v-686h-96v686h-256zM766 588h92v682q0 31 27 30q16 0 26 -22l242 -424h104l240 424q14 23 29 22q25 0 24 -30v-682h92v776h-212l-213 -401q-4 -8 -10.5 -8.5t-10.5 8.5l-217 401h-213v-776z" />
<glyph unicode="&#xe000;" horiz-adv-x="950" d="M0 950h950v-950h-950v950z" />
<glyph unicode="&#xfb01;" horiz-adv-x="1021" d="M31 852v100h180v129q0 96 17.5 157.5t74.5 102.5q59 43 209 43l238 -12l-9 -100q-115 8 -200 8q-39 0 -68 -3t-50.5 -9t-35.5 -16.5t-23.5 -24t-14.5 -30.5t-7 -38.5t-2 -47.5v-56v-37v-66h510v-823q0 -20 5 -27.5t24 -9.5l53 -10v-82h-293v80l53 10q29 8 29 37v688 q0 37 -33 37h-348v-723q0 -20 5 -27.5t24 -9.5l53 -10v-82h-293v80l53 10q18 4 23.5 11.5t5.5 25.5v725h-180z" />
<glyph unicode="&#xfb02;" horiz-adv-x="1021" d="M31 852v100h180v129q0 96 17.5 157.5t74.5 102.5q59 43 209 43q106 0 336 -30v-1225q0 -20 6 -26.5t25 -10.5l53 -10v-82h-293v80l53 10q18 4 23.5 11.5t5.5 25.5v725h-381v-723q0 -20 5 -27.5t24 -9.5l53 -10v-82h-293v80l53 10q18 4 23.5 11.5t5.5 25.5v725h-180z M340 952h381v314q-84 16 -178 16q-137 0 -168 -33q-8 -10 -14.5 -21t-10.5 -28.5t-6 -31t-3 -38t-1 -35.5v-40v-37v-66z" />
<glyph unicode="&#xfb03;" horiz-adv-x="1757" d="M1374 0v80l54 10q18 4 23 11.5t5 25.5v696q0 20 -5 27.5t-23 9.5l-54 10v82h211v-823q0 -20 5.5 -27.5t23.5 -9.5l53 -10v-82h-293zM1417 1208v156h162v-156h-162zM668 852v100h180v129q0 96 17.5 157.5t74.5 102.5q59 43 209 43l156 -14l-9 -94q-66 8 -129 8 q-123 0 -155 -35q-35 -39 -35 -170v-127h301v-100h-301v-723q0 -20 5 -27.5t24 -9.5l53 -10v-82h-293v80l53 10q18 4 23.5 11.5t5.5 25.5v725h-180zM31 852v100h180v129q0 96 17.5 157.5t74.5 102.5q59 43 209 43l156 -14l-9 -94q-66 8 -129 8q-123 0 -155 -35 q-35 -39 -35 -170v-127h301v-100h-301v-723q0 -20 5 -27.5t24 -9.5l53 -10v-82h-293v80l53 10q18 4 23.5 11.5t5.5 25.5v725h-180z" />
<glyph unicode="&#xfb04;" horiz-adv-x="1736" d="M1354 0v80l53 10q18 4 23.5 11.5t5.5 25.5v1108q0 20 -5 27.5t-24 9.5l-53 10v82h211v-1235q0 -20 5 -27.5t23 -9.5l54 -10v-82h-293zM668 852v100h180v129q0 96 17.5 157.5t74.5 102.5q59 43 209 43l156 -14l-9 -94q-66 8 -129 8q-123 0 -155 -35q-35 -39 -35 -170v-127 h301v-100h-301v-723q0 -20 5 -27.5t24 -9.5l53 -10v-82h-293v80l53 10q18 4 23.5 11.5t5.5 25.5v725h-180zM31 852v100h180v129q0 96 17.5 157.5t74.5 102.5q59 43 209 43l156 -14l-9 -94q-66 8 -129 8q-123 0 -155 -35q-35 -39 -35 -170v-127h301v-100h-301v-723 q0 -20 5 -27.5t24 -9.5l53 -10v-82h-293v80l53 10q18 4 23.5 11.5t5.5 25.5v725h-180z" />
</font>
</defs>
</svg>
